<svg width="16" height="19" viewBox="0 0 16 19" fill="none" xmlns="http://www.w3.org/2000/svg">
<path d="M0.546875 7C0.300781 7 0.125 7.21094 0.125 7.42188V16.5625C0.125 17.5117 0.863281 18.25 1.8125 18.25H14.1875C15.1016 18.25 15.875 17.5117 15.875 16.5625V7.42188C15.875 7.21094 15.6641 7 15.4531 7H0.546875ZM15.875 5.45312V4.1875C15.875 3.27344 15.1016 2.5 14.1875 2.5H12.5V0.671875C12.5 0.460938 12.2891 0.25 12.0781 0.25H10.6719C10.4258 0.25 10.25 0.460938 10.25 0.671875V2.5H5.75V0.671875C5.75 0.460938 5.53906 0.25 5.32812 0.25H3.92188C3.67578 0.25 3.5 0.460938 3.5 0.671875V2.5H1.8125C0.863281 2.5 0.125 3.27344 0.125 4.1875V5.45312C0.125 5.69922 0.300781 5.875 0.546875 5.875H15.4531C15.6641 5.875 15.875 5.69922 15.875 5.45312Z" fill="#006F57"/>
</svg>
