<svg width="94" height="94" viewBox="0 0 94 94" fill="none" xmlns="http://www.w3.org/2000/svg">
<path d="M93.5 47C93.5 21.5 72.5 0.5 47 0.5C21.3125 0.5 0.5 21.5 0.5 47C0.5 72.6875 21.3125 93.5 47 93.5C72.5 93.5 93.5 72.6875 93.5 47ZM41.5625 71.75C40.4375 72.875 38.375 72.875 37.25 71.75L17.75 52.25C16.625 51.125 16.625 49.0625 17.75 47.9375L22.0625 43.8125C23.1875 42.5 25.0625 42.5 26.1875 43.8125L39.5 56.9375L67.625 28.8125C68.75 27.5 70.625 27.5 71.75 28.8125L76.0625 32.9375C77.1875 34.0625 77.1875 36.125 76.0625 37.25L41.5625 71.75Z" fill="#23856D"/>
</svg>
