<svg width="70" height="70" viewBox="0 0 70 70" fill="none" xmlns="http://www.w3.org/2000/svg">
<path d="M69.875 35C69.875 15.875 54.125 0.125 35 0.125C15.7344 0.125 0.125 15.875 0.125 35C0.125 54.2656 15.7344 69.875 35 69.875C54.125 69.875 69.875 54.2656 69.875 35ZM30.9219 53.5625C30.0781 54.4062 28.5312 54.4062 27.6875 53.5625L13.0625 38.9375C12.2188 38.0938 12.2188 36.5469 13.0625 35.7031L16.2969 32.6094C17.1406 31.625 18.5469 31.625 19.3906 32.6094L29.375 42.4531L50.4688 21.3594C51.3125 20.375 52.7188 20.375 53.5625 21.3594L56.7969 24.4531C57.6406 25.2969 57.6406 26.8438 56.7969 27.6875L30.9219 53.5625Z" fill="#23856D"/>
</svg>
