<svg width="23" height="19" viewBox="0 0 23 19" fill="none" xmlns="http://www.w3.org/2000/svg">
<path d="M11.5 14.3125C8.82812 14.3125 6.64844 12.2734 6.47266 9.63672L2.78125 6.78906C2.28906 7.42188 1.83203 8.05469 1.48047 8.75781C1.41016 8.89844 1.375 9.07422 1.375 9.25C1.375 9.46094 1.41016 9.63672 1.48047 9.77734C3.37891 13.5039 7.17578 16 11.5 16C12.4141 16 13.3281 15.8594 14.207 15.6484L12.4141 14.2422C12.0977 14.3125 11.7812 14.3125 11.5 14.3125ZM22.5039 16.3867L18.6367 13.3633C19.7969 12.3789 20.7812 11.1484 21.4844 9.77734C21.5547 9.63672 21.5898 9.46094 21.5898 9.28516C21.5898 9.07422 21.5547 8.89844 21.4844 8.75781C19.5859 5.03125 15.7891 2.5 11.5 2.5C9.60156 2.53516 7.84375 2.99219 6.29688 3.83594L1.83203 0.390625C1.72656 0.320312 1.62109 0.285156 1.48047 0.285156C1.30469 0.285156 1.12891 0.355469 1.05859 0.496094L0.355469 1.375C0.285156 1.48047 0.25 1.58594 0.25 1.72656C0.25 1.90234 0.320312 2.04297 0.460938 2.14844L21.1328 18.1445C21.2383 18.2148 21.3438 18.25 21.4844 18.25C21.6602 18.25 21.8359 18.1797 21.9414 18.0391L22.6094 17.1602C22.6797 17.0547 22.7148 16.9492 22.7148 16.8086C22.7148 16.6328 22.6445 16.4922 22.5039 16.3867ZM16.0703 11.3945L14.6641 10.3047C14.8047 9.98828 14.8398 9.63672 14.875 9.25C14.875 9.25 14.875 9.25 14.875 9.21484C14.875 7.38672 13.3633 5.875 11.5352 5.875C11.2188 5.875 10.9023 5.94531 10.5859 6.01562C10.7969 6.29688 10.9023 6.64844 10.9375 7C10.9023 7.14062 10.9023 7.24609 10.8672 7.35156L8.26562 5.38281C9.14453 4.64453 10.2695 4.22266 11.5 4.1875C14.2773 4.1875 16.5625 6.47266 16.5625 9.25C16.5625 10.0234 16.3516 10.7266 16.0703 11.3945Z" fill="#006F57"/>
</svg>
