<svg width="21" height="14" viewBox="0 0 21 14" fill="none" xmlns="http://www.w3.org/2000/svg">
<path d="M20.4844 6.75781C18.5859 3.03125 14.7891 0.5 10.5 0.5C6.17578 0.5 2.37891 3.03125 0.480469 6.75781C0.410156 6.89844 0.375 7.07422 0.375 7.25C0.375 7.46094 0.410156 7.63672 0.480469 7.77734C2.37891 11.5039 6.17578 14 10.5 14C14.7891 14 18.5859 11.5039 20.4844 7.77734C20.5547 7.63672 20.5898 7.46094 20.5898 7.28516C20.5898 7.07422 20.5547 6.89844 20.4844 6.75781ZM10.5 12.3125C7.6875 12.3125 5.4375 10.0625 5.4375 7.25C5.4375 4.47266 7.6875 2.1875 10.5 2.1875C13.2773 2.1875 15.5625 4.47266 15.5625 7.25V7.28516C15.5625 10.0625 13.2773 12.3477 10.5 12.3477V12.3125ZM10.5 3.875C10.1836 3.91016 9.86719 3.94531 9.58594 4.01562C9.79688 4.29688 9.90234 4.64844 9.90234 5.03516C9.90234 5.94922 9.16406 6.6875 8.25 6.6875C7.86328 6.6875 7.51172 6.58203 7.23047 6.37109C7.16016 6.65234 7.125 6.96875 7.125 7.25C7.125 9.11328 8.63672 10.625 10.5 10.625C12.3633 10.625 13.875 9.11328 13.875 7.25C13.875 5.38672 12.3633 3.91016 10.5 3.91016V3.875Z" fill="#C4C4C4"/>
</svg>
