<svg width="22" height="22" viewBox="0 0 22 22" fill="none" xmlns="http://www.w3.org/2000/svg">
<path d="M21.6562 10.75C21.6133 4.86328 16.8438 0.09375 11 0.09375C8.12109 0.09375 5.54297 1.25391 3.60938 3.05859L1.50391 0.953125C1.07422 0.523438 0.34375 0.824219 0.34375 1.42578V7.65625C0.34375 8.04297 0.644531 8.34375 1.03125 8.34375H7.26172C7.86328 8.34375 8.16406 7.61328 7.73438 7.18359L5.54297 4.99219C6.96094 3.66016 8.89453 2.84375 11 2.84375C15.3398 2.84375 18.9062 6.41016 18.9062 10.75C18.9062 15.1328 15.3398 18.6562 11 18.6562C9.10938 18.6562 7.43359 18.0547 6.05859 16.9805C5.67188 16.6367 5.07031 16.6797 4.68359 17.0664L4.21094 17.5391C3.78125 17.9688 3.82422 18.6992 4.29688 19.0859C6.10156 20.5469 8.46484 21.4492 11 21.4062C16.8438 21.4062 21.6562 16.6367 21.6562 10.75ZM13.8789 14.1445L14.2656 13.5859C14.6523 13.1562 14.5664 12.5117 14.0938 12.168L12.375 10.793V6.28125C12.375 5.72266 11.9023 5.25 11.3438 5.25H10.6562C10.0547 5.25 9.625 5.72266 9.625 6.28125V12.125L12.418 14.3164C12.8477 14.6602 13.4922 14.5742 13.8789 14.1445Z" fill="#FAF8F8"/>
</svg>
