<svg width="25" height="20" viewBox="0 0 25 20" fill="none" xmlns="http://www.w3.org/2000/svg">
<path d="M12.1562 5.15234L4.25 11.6836V18.6875C4.25 19.0742 4.55078 19.375 4.9375 19.375H9.75C10.0938 19.375 10.3945 19.0742 10.3945 18.6875V14.5625C10.3945 14.2188 10.7383 13.875 11.082 13.875H13.832C14.2188 13.875 14.5195 14.2188 14.5195 14.5625V18.6875C14.5195 19.0742 14.8633 19.375 15.207 19.375H20.0625C20.4062 19.375 20.75 19.0742 20.75 18.6875V11.6406L12.8008 5.15234C12.7148 5.06641 12.5859 5.02344 12.5 5.02344C12.3711 5.02344 12.2422 5.06641 12.1562 5.15234ZM24.6602 9.57812L21.0938 6.61328V0.683594C21.0938 0.382812 20.8359 0.167969 20.5781 0.167969H18.1719C17.8711 0.167969 17.6562 0.382812 17.6562 0.683594V3.77734L13.7891 0.597656C13.4453 0.339844 12.9727 0.167969 12.5 0.167969C11.9844 0.167969 11.5117 0.339844 11.168 0.597656L0.296875 9.57812C0.167969 9.66406 0.0820312 9.83594 0.0820312 9.96484C0.0820312 10.0938 0.167969 10.2227 0.210938 10.3086L1.32812 11.6406C1.41406 11.7695 1.54297 11.8125 1.71484 11.8125C1.84375 11.8125 1.97266 11.7695 2.05859 11.6836L12.1562 3.39062C12.2422 3.30469 12.3711 3.26172 12.5 3.26172C12.5859 3.26172 12.7148 3.30469 12.8008 3.39062L22.8984 11.6836C22.9844 11.7695 23.1133 11.8125 23.2422 11.8125C23.4141 11.8125 23.543 11.7695 23.6289 11.6406L24.7461 10.3086C24.832 10.2227 24.875 10.0938 24.875 9.96484C24.875 9.83594 24.7891 9.66406 24.6602 9.57812Z" fill="#FAF8F8"/>
</svg>
