<svg width="70" height="70" viewBox="0 0 70 70" fill="none" xmlns="http://www.w3.org/2000/svg">
<path d="M35 0.125C15.7344 0.125 0.125 15.7344 0.125 35C0.125 54.2656 15.7344 69.875 35 69.875C54.2656 69.875 69.875 54.2656 69.875 35C69.875 15.7344 54.2656 0.125 35 0.125ZM52.0156 44.2812C52.7188 44.8438 52.7188 45.9688 52.0156 46.6719L46.5312 52.1562C45.8281 52.8594 44.7031 52.8594 44.1406 52.1562L35 42.875L25.7188 52.1562C25.1562 52.8594 24.0312 52.8594 23.3281 52.1562L17.8438 46.5312C17.1406 45.9688 17.1406 44.8438 17.8438 44.1406L27.125 35L17.8438 25.8594C17.1406 25.2969 17.1406 24.1719 17.8438 23.4688L23.4688 17.9844C24.0312 17.2812 25.1562 17.2812 25.8594 17.9844L35 27.125L44.1406 17.9844C44.7031 17.2812 45.8281 17.2812 46.5312 17.9844L52.0156 23.4688C52.7188 24.1719 52.7188 25.2969 52.0156 25.8594L42.875 35L52.0156 44.2812Z" fill="#BB010B"/>
</svg>
