<svg width="75" height="75" viewBox="0 0 75 75" fill="none" xmlns="http://www.w3.org/2000/svg">
<circle cx="37.5" cy="37.5" r="37.5" fill="#F26500"/>
<path d="M55.9297 46.1484L54.0312 34.8984C53.8203 33.8438 52.9062 33.0703 51.7812 33.0703H34.625V28.5703H41.375C41.9375 28.5703 42.5 28.0078 42.5 27.4453V20.625C42.5 20.0625 41.9375 19.5 41.375 19.5H23.375C22.7422 19.5 22.25 20.0625 22.25 20.625V27.375C22.25 28.0078 22.7422 28.5 23.375 28.5H30.125V33H24.1484C23.0234 33 22.1094 33.8438 21.8984 34.8984L20 46.1484C20 46.4297 19.9297 46.6406 19.9297 46.9219V53.25C19.9297 54.5156 20.9844 55.5 22.1797 55.5H53.6797C54.9453 55.5 55.9297 54.5156 55.9297 53.25V46.9219C56 46.6406 55.9297 46.4297 55.9297 46.1484ZM39.6875 36.9375C39.6875 36.375 40.1797 35.8125 40.8125 35.8125H41.9375C42.5 35.8125 43.0625 36.375 43.0625 36.9375V38.0625C43.0625 38.6953 42.5 39.1875 41.9375 39.1875H40.8125C40.1797 39.1875 39.6875 38.6953 39.6875 38.0625V36.9375ZM37.4375 41.4375H38.5625C39.125 41.4375 39.6875 42 39.6875 42.5625V43.6875C39.6875 44.3203 39.125 44.8125 38.5625 44.8125H37.4375C36.8047 44.8125 36.3125 44.3203 36.3125 43.6875V42.5625C36.3125 42 36.8047 41.4375 37.4375 41.4375ZM35.1875 35.8125C35.75 35.8125 36.3125 36.375 36.3125 36.9375V38.0625C36.3125 38.6953 35.75 39.1875 35.1875 39.1875H34.0625C33.4297 39.1875 32.9375 38.6953 32.9375 38.0625V36.9375C32.9375 36.375 33.4297 35.8125 34.0625 35.8125H35.1875ZM25.625 25.125V22.875H39.125V25.125H25.625ZM28.4375 39.1875H27.3125C26.6797 39.1875 26.1875 38.6953 26.1875 38.0625V36.9375C26.1875 36.375 26.6797 35.8125 27.3125 35.8125H28.4375C29 35.8125 29.5625 36.375 29.5625 36.9375V38.0625C29.5625 38.6953 29 39.1875 28.4375 39.1875ZM29.5625 43.6875V42.5625C29.5625 42 30.0547 41.4375 30.6875 41.4375H31.8125C32.375 41.4375 32.9375 42 32.9375 42.5625V43.6875C32.9375 44.3203 32.375 44.8125 31.8125 44.8125H30.6875C30.0547 44.8125 29.5625 44.3203 29.5625 43.6875ZM44.75 51.5625C44.75 51.9141 44.4688 52.125 44.1875 52.125H31.8125C31.4609 52.125 31.25 51.9141 31.25 51.5625V50.4375C31.25 50.1562 31.4609 49.875 31.8125 49.875H44.1875C44.4688 49.875 44.75 50.1562 44.75 50.4375V51.5625ZM46.4375 43.6875C46.4375 44.3203 45.875 44.8125 45.3125 44.8125H44.1875C43.5547 44.8125 43.0625 44.3203 43.0625 43.6875V42.5625C43.0625 42 43.5547 41.4375 44.1875 41.4375H45.3125C45.875 41.4375 46.4375 42 46.4375 42.5625V43.6875ZM49.8125 38.0625C49.8125 38.6953 49.25 39.1875 48.6875 39.1875H47.5625C46.9297 39.1875 46.4375 38.6953 46.4375 38.0625V36.9375C46.4375 36.375 46.9297 35.8125 47.5625 35.8125H48.6875C49.25 35.8125 49.8125 36.375 49.8125 36.9375V38.0625Z" fill="white"/>
</svg>
