<svg width="16" height="19" viewBox="0 0 16 19" fill="none" xmlns="http://www.w3.org/2000/svg">
<path d="M14.1875 8.125H13.3438V5.59375C13.3438 2.67578 10.918 0.25 8 0.25C5.04688 0.25 2.65625 2.67578 2.65625 5.59375V8.125H1.8125C0.863281 8.125 0.125 8.89844 0.125 9.8125V16.5625C0.125 17.5117 0.863281 18.25 1.8125 18.25H14.1875C15.1016 18.25 15.875 17.5117 15.875 16.5625V9.8125C15.875 8.89844 15.1016 8.125 14.1875 8.125ZM10.5312 8.125H5.46875V5.59375C5.46875 4.22266 6.59375 3.0625 8 3.0625C9.37109 3.0625 10.5312 4.22266 10.5312 5.59375V8.125Z" fill="#006F57"/>
</svg>
