<svg width="20" height="14" viewBox="0 0 20 14" fill="none" xmlns="http://www.w3.org/2000/svg">
<path d="M19.4062 0.71875C18.1875 0.21875 16.9688 0 15.75 0C11.9062 0 8.0625 1.96875 4.21875 1.96875C3.25 1.96875 2.28125 1.84375 1.3125 1.53125C1.21875 1.5 1.09375 1.46875 1 1.46875C0.46875 1.46875 0 1.90625 0 2.46875V12.4062C0 12.7812 0.21875 13.1562 0.5625 13.3125C1.78125 13.8125 3 14 4.21875 14C8.0625 14 11.9062 12.0625 15.75 12.0625C16.7188 12.0625 17.6875 12.1875 18.6562 12.5C18.75 12.5312 18.875 12.5312 18.9688 12.5312C19.5 12.5312 20 12.125 20 11.5625V1.625C20 1.25 19.75 0.875 19.4062 0.71875ZM1.5 3.15625C2.125 3.3125 2.78125 3.375 3.4375 3.4375C3.25 4.34375 2.46875 5.03125 1.5 5.03125V3.15625ZM1.5 12.0625V10.5625C2.5625 10.5625 3.4375 11.4062 3.46875 12.4688C2.78125 12.4375 2.125 12.2812 1.5 12.0625ZM10 10C8.59375 10 7.5 8.6875 7.5 7C7.5 5.34375 8.59375 4 10 4C11.375 4 12.5 5.34375 12.5 7C12.5 8.6875 11.375 10 10 10ZM18.5 10.875C17.9375 10.75 17.375 10.6562 16.7812 10.625C16.9688 9.8125 17.6562 9.1875 18.5 9.09375V10.875ZM18.5 3.5C17.5312 3.375 16.7812 2.5625 16.75 1.59375C17.3438 1.65625 17.9375 1.78125 18.5 1.96875V3.5Z" fill="#666666"/>
</svg>
