<svg width="22" height="22" viewBox="0 0 22 22" fill="none" xmlns="http://www.w3.org/2000/svg">
<path d="M11 0.09375C5.11328 0.09375 0.34375 4.86328 0.34375 10.75C0.34375 16.6367 5.11328 21.4062 11 21.4062C16.8867 21.4062 21.6562 16.6367 21.6562 10.75C21.6562 4.86328 16.8867 0.09375 11 0.09375ZM11 4.21875C13.0625 4.21875 14.7812 5.9375 14.7812 8C14.7812 10.1055 13.0625 11.7812 11 11.7812C8.89453 11.7812 7.21875 10.1055 7.21875 8C7.21875 5.9375 8.89453 4.21875 11 4.21875ZM11 19C8.46484 19 6.1875 17.8828 4.68359 16.0781C5.5 14.5742 7.08984 13.5 8.9375 13.5C9.02344 13.5 9.10938 13.543 9.23828 13.5859C9.79688 13.7578 10.3555 13.8438 11 13.8438C11.6016 13.8438 12.2031 13.7578 12.7188 13.5859C12.8477 13.543 12.9336 13.5 13.0625 13.5C14.8672 13.5 16.457 14.5742 17.2734 16.0781C15.7695 17.8828 13.4922 19 11 19Z" fill="#FAF8F8"/>
</svg>
